<mxfile host="app.diagrams.net" modified="2024-08-26T10:05:42.997Z" agent="Mozilla/5.0 (X11; Linux x86_64) AppleWebKit/537.36 (KHTML, like Gecko) Chrome/128.0.0.0 Safari/537.36" version="24.3.1" etag="zaOHk2T6ViLabks_pxfh" type="github">
  <diagram name="Страница — 1" id="JPZdB5sZ6SwQtbj9SvD2">
    <mxGraphModel>
      <root>
        <mxCell id="0" />
        <mxCell id="1" parent="0" />
      </root>
    </mxGraphModel>
  </diagram>
</mxfile>
